<?xml version="1.0" encoding="utf-8"?>
<!-- Generator: Adobe Illustrator 16.0.0, SVG Export Plug-In . SVG Version: 6.00 Build 0)  -->
<!DOCTYPE svg PUBLIC "-//W3C//DTD SVG 1.1//EN" "http://www.w3.org/Graphics/SVG/1.1/DTD/svg11.dtd">
<svg version="1.1" id="Layer_1" xmlns="http://www.w3.org/2000/svg" xmlns:xlink="http://www.w3.org/1999/xlink" x="0px" y="0px"
	 width="220px" height="54px" viewBox="361.455 240 220 54" enable-background="new 361.455 240 220 54" xml:space="preserve">
<path fill="#EB2136" d="M574.471,264.35h-5.887v-0.358c0.054-2.798,0.835-5.359,3.024-5.359c2.187,0,2.864,2.264,2.864,5.243v0.475
	H574.471z M581.35,281.373l-1.326-6.245c-2.842,0.893-5.683,1.369-7.635,1.369c-2.605,0-3.712-1.669-3.712-5.774h12.596
	c0.129-1.669,0.183-3.631,0.183-5.122c0-9.942-4.185-13.933-9.302-13.933c-7.191,0-10.683,5.42-10.683,16.316
	c0,10.539,2.269,15.956,9.9,15.956C574.682,283.939,577.833,283.278,581.35,281.373 M540.474,252.442v21.016
	c0,7.385,2.606,10.481,6.305,10.481c2.293,0,4.194-0.775,6.877-3.572l0.523,2.85h6.044v-30.775h-7.295v21.079
	c-1.12,1.308-2.318,1.903-3.158,1.903c-1.401,0-2-1.903-2-4.403v-18.579H540.474L540.474,252.442z M528.715,260.24
	c0.847,0,1.807,0.715,2.928,1.969v11.189c-1.12,1.315-2.291,2.027-3.073,2.027c-1.668,0-2.554-2.083-2.554-7.383
	C526.015,262.324,527.029,260.24,528.715,260.24 M526.015,283.939c1.825,0,3.57-0.891,5.628-2.92V294h7.295v-41.558h-6.045
	l-0.521,2.859c-2.367-2.621-3.75-3.634-5.805-3.634c-4.277,0-8.028,5.179-8.028,16.611
	C518.539,279.115,521.691,283.939,526.015,283.939 M517.318,252.442h-7.301v30.777h7.301V252.442z M517.318,240.239h-7.301v8.212
	h7.301V240.239z M508.693,261.555v-9.887h-0.992c-1.953,0-2.786,0.774-5.394,4.404l-0.599-3.63h-5.862v30.775h7.298v-19.525
	c1.406-1.484,2.346-2.138,3.96-2.138H508.693L508.693,261.555z M495.404,240.477c-1.353-0.357-2.524-0.477-3.774-0.477
	c-5.212,0-7.529,3.336-7.529,9.706v2.737h-2.499v7.266h2.499v23.511h7.294v-23.511h3.127v-7.267h-3.18v-2.561
	c0-1.961,0.523-2.976,1.953-2.976c0.575,0,1.226,0.062,1.643,0.177L495.404,240.477z M473.041,273.397
	c-1.107,1.315-2.28,2.027-3.062,2.027c-1.68,0-2.553-2.083-2.553-7.383c0-5.719,1.017-7.802,2.683-7.802
	c0.848,0,1.824,0.715,2.931,1.969L473.041,273.397L473.041,273.397z M480.349,283.218v-30.775h-6.046l-0.521,2.976
	c-2.37-2.617-3.763-3.75-5.808-3.75c-4.273,0-8.038,5.181-8.038,16.611c0,10.834,3.166,15.66,7.491,15.66
	c1.811,0,3.621-0.775,6.354-3.572l0.471,2.851L480.349,283.218L480.349,283.218z"/>
<path d="M450.128,264.328h-5.903v-0.354c0.045-2.802,0.842-5.364,3.017-5.364c2.19,0,2.886,2.262,2.886,5.241V264.328
	L450.128,264.328z M457.005,281.371l-1.34-6.261c-2.842,0.895-5.67,1.371-7.627,1.371c-2.606,0-3.714-1.664-3.714-5.776h12.591
	c0.144-1.667,0.195-3.636,0.195-5.122c0-9.951-4.189-13.942-9.309-13.942c-7.208,0-10.688,5.421-10.688,16.322
	c0,10.547,2.271,15.971,9.903,15.971C450.319,283.932,453.474,283.27,457.005,281.371 M435.667,283.216v-21.028
	c0-7.388-2.608-10.546-6.322-10.546c-2.28,0-4.184,0.835-6.883,3.636l-0.509-2.864h-6.049v30.803h7.3v-21.088
	c1.121-1.311,2.329-1.909,3.116-1.909c1.448,0,2.046,1.909,2.046,4.411v18.586H435.667L435.667,283.216z M394.474,252.414v21.033
	c0,7.391,2.593,10.484,6.322,10.484c2.279,0,4.185-0.77,6.883-3.572l0.509,2.856h6.048v-30.802h-7.3v21.089
	c-1.121,1.315-2.334,1.907-3.168,1.907c-1.395,0-1.994-1.907-1.994-4.408v-18.588H394.474L394.474,252.414z M386.104,264.328H380.2
	v-0.354c0.04-2.802,0.834-5.364,3.012-5.364c2.19,0,2.892,2.262,2.892,5.241V264.328L386.104,264.328L386.104,264.328z
	 M392.979,281.371l-1.347-6.261c-2.837,0.895-5.67,1.371-7.625,1.371c-2.607,0-3.715-1.664-3.715-5.776h12.591
	c0.144-1.667,0.196-3.636,0.196-5.122c0-9.951-4.185-13.942-9.308-13.942c-7.209,0-10.689,5.421-10.689,16.322
	c0,10.547,2.28,15.971,9.907,15.971C386.287,283.932,389.443,283.27,392.979,281.371 M371.597,279.881v-27.468h-7.3v28.301
	c0,3.033-0.521,5.356-2.842,8.343l4.367,4.943C370.059,290.125,371.597,286.378,371.597,279.881 M371.597,240.198h-7.3v8.226h7.3
	V240.198z"/>
</svg>
