<?xml version="1.0" encoding="utf-8"?>
<!-- Generator: Adobe Illustrator 16.0.0, SVG Export Plug-In . SVG Version: 6.00 Build 0)  -->
<!DOCTYPE svg PUBLIC "-//W3C//DTD SVG 1.1//EN" "http://www.w3.org/Graphics/SVG/1.1/DTD/svg11.dtd">
<svg version="1.1" id="Layer_1" xmlns="http://www.w3.org/2000/svg" xmlns:xlink="http://www.w3.org/1999/xlink" x="0px" y="0px"
	 width="169.195px" height="73.864px" viewBox="0 0 169.195 73.864" enable-background="new 0 0 169.195 73.864"
	 xml:space="preserve">
<linearGradient id="SVGID_1_" gradientUnits="userSpaceOnUse" x1="-320.603" y1="-140.4517" x2="-312.7749" y2="-140.4517" gradientTransform="matrix(6.3075 0 0 6.3075 2122.8591 922.2917)">
	<stop  offset="0" style="stop-color:#66C1BF"/>
	<stop  offset="0.571" style="stop-color:#66C1BF"/>
	<stop  offset="1" style="stop-color:#66C1BF"/>
</linearGradient>
<path fill="url(#SVGID_1_)" d="M120.767,11.849h-1.64l-7.511,1.692l-2.589-0.769l-3.021,3.693v0.846l-5.266,6.155l0.604,3.309
	l-0.691,0.923l0.431,1.693l6.388,5.463l8.979-1.54l0.862,1.385l2.591-0.308v4.462l2.244,2.462l0.776,4.001l-1.208,3.001
	l5.697,12.619l5.438-0.847l5.87-7.002v-3l3.798-3.154l-1.295-6.309l6.905-6.771l1.899-4.155l-4.92,0.922l-8.806-13.695l1.813,1.769
	l0.087-2.384h-4.144l-5.352-1.386l-1.813,2.231l-6.129-2.539V11.849z"/>
<path d="M19.941,23.467c-0.518,0-0.95,0-1.295-0.154v-1.616c0.259,0,0.519,0.077,0.777,0.077c0.69,0,0.863-0.384,0.863-1.078v-5.462
	h2.331v5.54C22.617,22.543,21.495,23.467,19.941,23.467z M26.76,23.544c-2.244,0-2.849-1.077-2.849-3.231
	c0-2.231,1.036-3.309,3.108-3.309c1.468,0,2.676,0.847,2.676,2.847c0,0.308,0,0.692-0.086,1h-3.626c0,0.846,0.346,1.154,1.123,1.154
	c0.604,0,1.381-0.077,2.245-0.308l0.431,1.231C28.66,23.391,27.71,23.544,26.76,23.544z M27.71,19.466
	c0-0.615-0.172-1.077-0.863-1.077c-0.604,0-0.863,0.539-0.863,1.077v0.077h1.727V19.466L27.71,19.466z M33.062,17.158v3.771
	c0,0.538,0.173,0.922,0.604,0.922c0.259,0,0.604-0.154,0.95-0.385v-4.309h2.158v6.233h-1.727l-0.172-0.616
	c-0.776,0.539-1.381,0.693-1.985,0.693c-1.123,0-1.813-0.616-1.813-2.155v-4.155L33.062,17.158L33.062,17.158z M41.695,23.391V19.62
	c0-0.539-0.173-0.924-0.605-0.924c-0.259,0-0.604,0.154-0.863,0.385v4.309h-2.158v-6.232h1.727l0.172,0.616
	c0.777-0.539,1.382-0.771,1.986-0.771c1.123,0,1.813,0.616,1.813,2.155v4.232L41.695,23.391L41.695,23.391z M47.91,23.544
	c-2.244,0-2.849-1.077-2.849-3.231c0-2.231,1.036-3.309,3.108-3.309c1.468,0,2.676,0.847,2.676,2.847c0,0.308,0,0.692-0.086,1
	h-3.625c0,0.846,0.346,1.154,1.123,1.154c0.604,0,1.381-0.077,2.245-0.308l0.431,1.231C49.809,23.391,48.859,23.544,47.91,23.544
	L47.91,23.544z M48.773,19.466c0-0.615-0.172-1.077-0.863-1.077c-0.604,0-0.863,0.539-0.863,1.077v0.077h1.726V19.466L48.773,19.466
	z M59.563,23.391l-0.259-1.309h-2.158l-0.259,1.309h-2.244l1.985-8.156h3.367l1.985,8.156H59.563z M58.269,17.081l-0.863,3.462h1.64
	L58.269,17.081z M66.124,16.081h-0.431c-0.432,0-0.604,0.231-0.604,0.615v0.539h0.949v1.461h-0.863v4.694h-2.158V18.62h-0.69v-1.461
	h0.69v-0.616c0-1.308,0.69-2,2.158-2c0.346,0,0.691,0,1.122,0.077L66.124,16.081z M70.268,19.005c-0.431,0-0.776,0.154-1.122,0.461
	v3.924h-2.158v-6.232h1.727l0.172,0.769c0.776-0.769,1.036-0.923,1.554-0.923H70.7v2.001L70.268,19.005L70.268,19.005z
	 M71.649,16.312v-1.616h2.158v1.692h-2.158V16.312z M71.649,23.391v-6.232h2.158v6.232H71.649z M75.016,20.312
	c0-2.308,1.122-3.385,2.33-3.385c0.605,0,1.036,0.231,1.727,0.769l0.172-0.615h1.727v8.156l-2.159,0.23v-2.616
	c-0.604,0.385-1.122,0.616-1.64,0.616C75.879,23.544,75.016,22.543,75.016,20.312L75.016,20.312z M77.173,20.312
	c0,1.078,0.259,1.462,0.777,1.462c0.259,0,0.604-0.154,0.863-0.384v-2.309c-0.345-0.231-0.604-0.385-0.863-0.385
	C77.433,18.696,77.173,19.159,77.173,20.312z M84.425,17.158v3.77c0,0.539,0.173,0.923,0.604,0.923c0.259,0,0.604-0.154,0.949-0.385
	v-4.308h2.158v6.232H86.41l-0.172-0.616c-0.777,0.539-1.381,0.692-1.986,0.692c-1.122,0-1.813-0.616-1.813-2.154v-4.155H84.425z
	 M92.108,23.544c-2.244,0-2.848-1.077-2.848-3.231c0-2.231,1.036-3.309,3.107-3.309c1.468,0,2.676,0.847,2.676,2.847
	c0,0.308,0,0.692-0.087,1h-3.625c0,0.846,0.345,1.154,1.122,1.154c0.604,0,1.381-0.077,2.244-0.308l0.432,1.231
	C94.007,23.391,93.057,23.544,92.108,23.544z M93.057,19.466c0-0.615-0.172-1.077-0.863-1.077c-0.604,0-0.863,0.539-0.863,1.077
	v0.077h1.727V19.466z"/>
<path fill="#005D9F" d="M25.811,46.549h-6.647V27.007c2.244,0,4.402-0.077,6.561-0.077c4.748,0,7.942,1.231,7.942,5.231
	c0,2.001-0.95,3.386-2.762,4.001c2.245,0.462,3.54,2.232,3.54,4.231C34.357,44.55,30.818,46.549,25.811,46.549L25.811,46.549z
	 M25.293,30.7c-0.432,0-0.69,0-0.95,0.077v4.001h0.777c2.849,0,3.281-0.923,3.281-2.078C28.487,31.469,28.055,30.7,25.293,30.7z
	 M25.12,38.317h-0.777v4.386h1.123c3.021,0,3.366-1.154,3.366-2.232C28.832,39.317,28.314,38.317,25.12,38.317z M40.745,31.546
	v9.001c0,1.232,0.431,2.156,1.381,2.156c0.604,0,1.468-0.309,2.244-0.925V31.546h5.093v14.926h-4.23l-0.345-1.385
	c-1.899,1.385-3.194,1.77-4.834,1.77c-2.59,0-4.403-1.539-4.403-5.08V31.546H40.745z M55.938,46.857
	c-2.244,0-3.712-0.461-5.438-1.308l1.467-3.232c1.295,0.615,2.503,0.924,3.367,0.924c1.122,0,1.468-0.46,1.468-1
	c0-0.616-0.345-0.923-2.331-1.771c-2.762-0.999-3.798-2.615-3.798-4.692c0-2.693,2.158-4.616,5.783-4.616
	c1.813,0,3.453,0.384,5.007,1.154l-1.382,3.078c-1.122-0.462-2.158-0.847-3.194-0.847c-0.863,0-1.295,0.384-1.295,0.924
	c0,0.615,0.432,0.923,2.331,1.692c3.107,1.077,4.057,2.693,4.057,4.694C61.894,45.087,59.305,46.857,55.938,46.857L55.938,46.857z
	 M63.103,29.623v-4h5.094v4H63.103z M63.103,46.472V31.546h5.094v14.926H63.103z M78.9,46.472v-9.001
	c0-1.232-0.432-2.154-1.468-2.154c-0.518,0-1.381,0.308-2.158,0.922v10.233h-5.093V31.546h4.23l0.345,1.385
	c1.898-1.385,3.194-1.77,4.833-1.77c2.59,0,4.403,1.539,4.403,5.077v10.233H78.9L78.9,46.472z M92.194,46.857
	c-5.352,0-6.906-2.616-6.906-7.771c0-5.309,2.417-7.925,7.425-7.925c3.539,0,6.474,1.923,6.474,6.771c0,0.693,0,1.693-0.086,2.462
	h-8.805c0,2,0.776,2.77,2.59,2.77c1.38,0,3.366-0.231,5.352-0.692l0.949,3.001C96.683,46.549,94.525,46.857,92.194,46.857
	L92.194,46.857z M94.353,37.085c0-1.461-0.518-2.539-1.986-2.539c-1.554,0-2.071,1.232-2.071,2.616v0.154h4.143v-0.231
	L94.353,37.085L94.353,37.085z M105.229,46.857c-2.244,0-3.712-0.461-5.438-1.308l1.467-3.232c1.295,0.615,2.503,0.924,3.366,0.924
	c1.123,0,1.468-0.46,1.468-1c0-0.616-0.345-0.923-2.331-1.771c-2.762-0.999-3.798-2.615-3.798-4.692
	c0-2.693,2.158-4.616,5.784-4.616c1.812,0,3.452,0.384,5.006,1.154l-1.381,3.078c-1.122-0.462-2.158-0.847-3.194-0.847
	c-0.863,0-1.294,0.384-1.294,0.924c0,0.615,0.431,0.923,2.331,1.692c3.107,1.077,4.058,2.693,4.058,4.694
	C111.272,45.087,108.682,46.857,105.229,46.857L105.229,46.857z M116.882,46.857c-2.244,0-3.712-0.461-5.438-1.308l1.468-3.232
	c1.295,0.615,2.504,0.924,3.367,0.924c1.122,0,1.467-0.46,1.467-1c0-0.616-0.345-0.923-2.33-1.771
	c-2.763-0.999-3.799-2.615-3.799-4.692c0-2.693,2.158-4.616,5.784-4.616c1.813,0,3.453,0.384,5.007,1.154l-1.381,3.078
	c-1.122-0.462-2.159-0.847-3.195-0.847c-0.863,0-1.295,0.384-1.295,0.924c0,0.615,0.432,0.923,2.331,1.692
	c3.108,1.077,4.058,2.693,4.058,4.694C122.925,45.087,120.335,46.857,116.882,46.857L116.882,46.857z M132.594,40.087v5.616h-2.504
	v-5.616h-5.784v-2.078h5.784v-5.617h2.504v5.617h5.783v2.078H132.594z"/>
<path fill="none" d="M0,0h169.195v73.864H0V0z"/>
<path d="M21.926,52.55h0.69v3.156c0,0.923-0.518,1.539-1.727,1.539s-1.726-0.461-1.726-1.462V52.55h0.69v3.232
	c0,0.693,0.259,0.923,1.036,0.923c0.777,0,1.036-0.384,1.036-0.923V52.55L21.926,52.55z M25.983,57.245V55.09
	c0-0.462-0.172-0.846-0.604-0.846c-0.259,0-0.519,0.153-0.863,0.46v2.54h-0.777v-3.54h0.604l0.086,0.462
	c0.518-0.386,0.777-0.462,1.208-0.462c0.604,0,1.036,0.462,1.036,1.23v2.309H25.983L25.983,57.245z M31.595,57.013
	c-0.259,0.155-0.604,0.309-1.036,0.309c-0.777,0-1.381-0.385-1.381-1.77c0-1.232,0.604-1.847,1.468-1.847
	c0.345,0,0.69,0.077,0.949,0.231l-0.172,0.461c-0.259-0.153-0.432-0.23-0.691-0.23c-0.518,0-0.863,0.307-0.863,1.23
	c0,1,0.345,1.231,0.777,1.231c0.345,0,0.518-0.077,0.777-0.155L31.595,57.013L31.595,57.013z M33.58,57.245
	c-1.122,0-1.64-0.539-1.64-1.771c0-1.076,0.518-1.846,1.64-1.846c1.036,0,1.554,0.54,1.554,1.846
	C35.22,56.476,34.702,57.245,33.58,57.245z M33.58,54.168c-0.69,0-0.95,0.537-0.95,1.306c0,0.771,0.259,1.31,0.95,1.31
	s0.95-0.539,0.95-1.31C34.53,54.628,34.271,54.168,33.58,54.168z M38.328,57.245l-0.086-0.461c-0.518,0.384-0.777,0.461-1.208,0.461
	c-0.604,0-1.036-0.461-1.036-1.231v-2.385h0.777v2.153c0,0.462,0.172,0.847,0.604,0.847c0.259,0,0.518-0.153,0.863-0.462v-2.539
	h0.691v3.616L38.328,57.245L38.328,57.245z M39.968,58.552v-4.847h0.605l0.086,0.462c0.518-0.386,0.777-0.462,1.122-0.462
	c0.691,0,1.209,0.693,1.209,1.769c0,1.231-0.604,1.847-1.381,1.847c-0.259,0-0.518-0.077-0.95-0.385v1.615H39.968L39.968,58.552z
	 M40.659,56.245c0.345,0.308,0.604,0.461,0.863,0.461c0.431,0,0.776-0.461,0.776-1.231c0-0.77-0.259-1.23-0.69-1.23
	c-0.259,0-0.518,0.153-0.863,0.46v1.54L40.659,56.245L40.659,56.245z M47.651,57.245l-0.086-0.461
	c-0.518,0.384-0.777,0.461-1.122,0.461c-0.691,0-1.209-0.692-1.209-1.771c0-1.229,0.604-1.846,1.381-1.846
	c0.259,0,0.518,0.077,0.95,0.384v-1.769l0.69-0.077v5.079L47.651,57.245L47.651,57.245z M47.479,54.628
	c-0.346-0.308-0.605-0.46-0.863-0.46c-0.432,0-0.777,0.46-0.777,1.23s0.259,1.231,0.69,1.231c0.259,0,0.518-0.155,0.864-0.461v-1.54
	H47.479L47.479,54.628z M49.032,53.628l0.605-1.771l0.69,0.154l-0.776,1.693L49.032,53.628L49.032,53.628z M52.744,57.245
	l-0.086-0.461c-0.518,0.384-0.777,0.461-1.122,0.461c-0.691,0-1.208-0.692-1.208-1.771c0-1.229,0.604-1.846,1.381-1.846
	c0.259,0,0.518,0.077,0.949,0.462l0.086-0.462h0.518v3.616H52.744L52.744,57.245z M52.658,54.628
	c-0.345-0.308-0.604-0.46-0.863-0.46c-0.432,0-0.777,0.46-0.777,1.23s0.259,1.231,0.691,1.231c0.259,0,0.518-0.155,0.863-0.461
	v-1.54H52.658L52.658,54.628z M54.988,57.245l-1.036-3.54h0.777l0.69,2.385l0.086,0.539l0.173-0.539l0.604-2.385h0.777l-1.123,3.54
	H54.988z M59.736,57.245l-0.086-0.461c-0.518,0.384-0.777,0.461-1.123,0.461c-0.69,0-1.208-0.692-1.208-1.771
	c0-1.229,0.604-1.846,1.381-1.846c0.259,0,0.518,0.077,0.95,0.462l0.086-0.462h0.518v3.616H59.736L59.736,57.245z M59.563,54.628
	c-0.345-0.308-0.604-0.46-0.863-0.46c-0.432,0-0.777,0.46-0.777,1.23s0.259,1.231,0.691,1.231c0.259,0,0.518-0.155,0.863-0.461
	v-1.54H59.563L59.563,54.628z M63.448,57.245V55.09c0-0.462-0.173-0.846-0.604-0.846c-0.258,0-0.518,0.153-0.863,0.46v2.54h-0.69
	v-3.54h0.604l0.086,0.462c0.518-0.386,0.777-0.462,1.208-0.462c0.604,0,1.036,0.462,1.036,1.23v2.309H63.448L63.448,57.245z
	 M67.505,57.013c-0.259,0.155-0.604,0.309-1.036,0.309c-0.777,0-1.381-0.385-1.381-1.77c0-1.232,0.604-1.847,1.467-1.847
	c0.345,0,0.69,0.077,0.95,0.231l-0.173,0.461c-0.172-0.078-0.432-0.153-0.69-0.153c-0.518,0-0.863,0.306-0.863,1.229
	c0,1,0.346,1.231,0.777,1.231c0.345,0,0.519-0.076,0.777-0.153L67.505,57.013L67.505,57.013z M70.7,57.013
	c-0.518,0.155-0.95,0.231-1.381,0.231c-1.036,0-1.467-0.539-1.467-1.771c0-1.229,0.604-1.846,1.554-1.846
	c0.863,0,1.381,0.54,1.381,1.539v0.462h-2.244c0,0.769,0.258,1.077,0.863,1.077c0.259,0,0.777-0.077,1.123-0.153L70.7,57.013
	L70.7,57.013z M70.095,55.09c0-0.54-0.172-0.922-0.776-0.922c-0.604,0-0.776,0.537-0.776,0.999L70.095,55.09L70.095,55.09z
	 M73.289,56.552c0.259,0.153,0.518,0.231,0.777,0.231c0.432,0,0.604-0.231,0.604-0.462c0-0.692-1.554-0.615-1.554-1.77
	c0-0.539,0.518-0.923,1.208-0.923c0.346,0,0.691,0.077,0.951,0.231l-0.173,0.46c-0.259-0.075-0.518-0.152-0.777-0.152
	c-0.345,0-0.518,0.152-0.518,0.383c0,0.692,1.64,0.616,1.64,1.77c0,0.616-0.519,1-1.208,1c-0.432,0-0.777-0.077-1.036-0.229
	L73.289,56.552L73.289,56.552z M78.469,57.245l-0.087-0.461c-0.517,0.384-0.776,0.461-1.208,0.461c-0.604,0-1.036-0.461-1.036-1.231
	v-2.385h0.691v2.153c0,0.462,0.172,0.847,0.604,0.847c0.259,0,0.518-0.153,0.863-0.462v-2.539h0.69v3.616L78.469,57.245
	L78.469,57.245z M80.022,57.245v-3.54h0.604l0.086,0.462c0.518-0.462,0.691-0.539,0.95-0.539h0.172v0.616h-0.172
	c-0.346,0-0.519,0.153-0.864,0.46v2.54L80.022,57.245L80.022,57.245z M84.166,57.245v-4.924l0.69-0.078v5.002L84.166,57.245
	L84.166,57.245z M88.568,57.013c-0.518,0.155-0.949,0.231-1.38,0.231c-1.037,0-1.467-0.539-1.467-1.771
	c0-1.229,0.604-1.846,1.553-1.846c0.864,0,1.382,0.54,1.382,1.539v0.462H86.41c0,0.769,0.259,1.077,0.863,1.077
	c0.26,0,0.777-0.077,1.124-0.153L88.568,57.013L88.568,57.013z M87.964,55.09c0-0.54-0.173-0.922-0.777-0.922
	c-0.604,0-0.777,0.537-0.777,0.999L87.964,55.09z M89.518,56.552c0.259,0.153,0.518,0.231,0.777,0.231
	c0.431,0,0.604-0.231,0.604-0.462c0-0.692-1.554-0.615-1.554-1.77c0-0.539,0.518-0.923,1.208-0.923c0.345,0,0.691,0.077,0.95,0.231
	l-0.172,0.46c-0.259-0.075-0.518-0.152-0.777-0.152c-0.345,0-0.518,0.152-0.518,0.383c0,0.692,1.64,0.616,1.64,1.77
	c0,0.616-0.518,1-1.208,1c-0.432,0-0.776-0.077-1.036-0.229L89.518,56.552L89.518,56.552z M98.323,57.245V55.09
	c0-0.462-0.173-0.846-0.518-0.846c-0.258,0-0.519,0.153-0.95,0.46v2.54h-0.69V55.09c0-0.462-0.172-0.846-0.604-0.846
	c-0.259,0-0.517,0.153-0.863,0.46v2.54h-0.691v-3.54h0.604l0.086,0.462c0.518-0.386,0.776-0.462,1.208-0.462
	c0.432,0,0.69,0.231,0.863,0.54c0.604-0.461,0.864-0.54,1.295-0.54c0.604,0,1.036,0.462,1.036,1.23v2.309H98.323L98.323,57.245z
	 M102.294,57.245l-0.086-0.461c-0.518,0.384-0.777,0.461-1.123,0.461c-0.69,0-1.208-0.692-1.208-1.771
	c0-1.229,0.604-1.846,1.38-1.846c0.26,0,0.518,0.077,0.95,0.462l0.086-0.462h0.519v3.616H102.294L102.294,57.245L102.294,57.245z
	 M102.122,54.628c-0.345-0.308-0.604-0.46-0.863-0.46c-0.432,0-0.776,0.46-0.776,1.23s0.258,1.231,0.69,1.231
	c0.259,0,0.519-0.153,0.864-0.461v-1.54H102.122L102.122,54.628z M103.848,57.245v-3.54h0.604l0.087,0.462
	c0.518-0.462,0.69-0.539,0.949-0.539h0.173v0.616h-0.259c-0.345,0-0.518,0.153-0.863,0.46v2.54L103.848,57.245L103.848,57.245
	L103.848,57.245z M108.422,57.013c-0.258,0.155-0.604,0.309-1.036,0.309c-0.776,0-1.38-0.385-1.38-1.77
	c0-1.232,0.604-1.847,1.467-1.847c0.345,0,0.691,0.078,0.949,0.231l-0.172,0.461c-0.173-0.078-0.432-0.153-0.691-0.153
	c-0.518,0-0.863,0.306-0.863,1.229c0,1.002,0.432,1.231,0.776,1.231s0.518-0.076,0.777-0.153L108.422,57.013L108.422,57.013z
	 M111.186,57.245V55.09c0-0.462-0.173-0.846-0.604-0.846c-0.26,0-0.519,0.153-0.864,0.46v2.54h-0.691v-4.924l0.691-0.078v1.925
	c0.518-0.386,0.776-0.463,1.122-0.463c0.604,0,1.035,0.463,1.035,1.231v2.309L111.186,57.245L111.186,57.245z M115.588,57.013
	c-0.519,0.155-0.95,0.231-1.382,0.231c-1.036,0-1.468-0.539-1.468-1.771c0-1.229,0.604-1.846,1.555-1.846
	c0.863,0,1.381,0.54,1.381,1.539v0.462h-2.244c0,0.769,0.259,1.077,0.863,1.077c0.259,0,0.776-0.077,1.123-0.153L115.588,57.013
	L115.588,57.013z M114.984,55.09c0-0.54-0.173-0.922-0.777-0.922c-0.604,0-0.776,0.537-0.776,0.999L114.984,55.09z M113.861,53.167
	l0.863-1l0.691,0.231l-1.036,0.923L113.861,53.167L113.861,53.167z M116.538,56.552c0.259,0.153,0.518,0.231,0.776,0.231
	c0.432,0,0.604-0.231,0.604-0.462c0-0.692-1.555-0.615-1.555-1.77c0-0.539,0.519-0.923,1.21-0.923c0.345,0,0.689,0.077,0.949,0.231
	l-0.173,0.46c-0.26-0.075-0.519-0.152-0.776-0.152c-0.346,0-0.519,0.152-0.519,0.383c0,0.692,1.641,0.616,1.641,1.77
	c0,0.616-0.519,1-1.209,1c-0.432,0-0.776-0.077-1.035-0.229L116.538,56.552L116.538,56.552z"/>
</svg>
