<svg xmlns="http://www.w3.org/2000/svg" width="474.749" height="90.769" viewBox="0 0 474.749 90.769">
  <path fill="#EB2136" d="M459.738 40.931h-12.711v-.601c.102-4.703 1.803-9.006 6.506-9.006s6.205 3.803 6.205 8.807v.8zm14.811 28.622l-2.902-10.508c-6.104 1.501-12.209 2.301-16.411 2.301-5.604 0-8.007-2.802-8.007-9.707h27.12c.301-2.802.4-6.104.4-8.607 0-16.712-9.006-23.417-20.015-23.417-15.513 0-23.018 9.106-23.018 27.42 0 17.714 4.904 26.819 21.315 26.819 7.107.001 13.912-1.1 21.518-4.301m-88.067-48.637v35.327c0 12.41 5.605 17.612 13.611 17.612 4.903 0 9.007-1.3 14.811-6.004l1.102 4.805h13.01v-51.74h-15.713v35.428c-2.4 2.201-5.004 3.201-6.805 3.201-3.002 0-4.303-3.201-4.303-7.405V20.916h-15.713zm-25.318 13.11c1.802 0 3.904 1.201 6.305 3.303v18.813c-2.4 2.202-4.903 3.402-6.605 3.402-3.602 0-5.504-3.502-5.504-12.408-.001-9.608 2.201-13.11 5.804-13.11m-5.805 39.829c3.904 0 7.706-1.5 12.109-4.902v21.816h15.713V20.916H370.17l-1.101 4.804c-5.104-4.403-8.105-6.104-12.509-6.104-9.207 0-17.314 8.706-17.314 27.92.001 18.214 6.808 26.319 16.113 26.319m-18.712-52.939h-15.713v51.74h15.713v-51.74zm0-20.515h-15.713v13.811h15.713V.401zm-18.612 35.828V19.616h-2.103c-4.203 0-6.005 1.3-11.609 7.405l-1.301-6.105h-12.609v51.74h15.713V39.83c3.002-2.501 5.004-3.602 8.506-3.602h3.403zM289.413.801c-2.902-.6-5.404-.801-8.105-.801-11.209 0-16.213 5.604-16.213 16.313v4.603h-5.403v12.21h5.403v39.53h15.712v-39.53h6.705v-12.21h-6.806v-4.303c0-3.302 1.102-5.003 4.204-5.003 1.201 0 2.602.1 3.502.3L289.413.801zm-48.136 55.341c-2.4 2.202-4.902 3.402-6.604 3.402-3.603 0-5.504-3.502-5.504-12.408 0-9.608 2.201-13.11 5.804-13.11 1.802 0 3.903 1.201 6.304 3.303v18.813zm15.713 16.514v-51.74h-13.01l-1.102 5.005c-5.104-4.404-8.105-6.305-12.509-6.305-9.207 0-17.312 8.706-17.312 27.92 0 18.214 6.804 26.319 16.112 26.319 3.902 0 7.805-1.3 13.709-6.004l1.001 4.805h13.111z"></path>
  <path d="M190.841 40.931h-12.71v-.601c.1-4.704 1.802-9.006 6.506-9.006 4.703 0 6.204 3.802 6.204 8.806v.801zm14.81 28.622l-2.901-10.508c-6.104 1.501-12.209 2.302-16.412 2.302-5.604 0-8.006-2.803-8.006-9.708h27.12c.3-2.802.399-6.104.399-8.607 0-16.712-9.006-23.417-20.015-23.417-15.512 0-23.017 9.106-23.017 27.42 0 17.714 4.903 26.822 21.316 26.822 7.105 0 13.911-1.102 21.516-4.304m-45.933 3.103V37.328c0-12.409-5.604-17.713-13.61-17.713-4.902 0-9.006 1.402-14.811 6.104l-1.102-4.804h-13.01v51.74h15.713V37.228c2.4-2.202 5.004-3.202 6.705-3.202 3.102 0 4.402 3.202 4.402 7.406v31.224h15.713zm-88.666-51.74v35.327c0 12.409 5.604 17.614 13.61 17.614 4.903 0 9.007-1.303 14.812-6.006l1.101 4.805h13.01v-51.74H97.872v35.428c-2.402 2.201-5.003 3.201-6.806 3.201-3.002 0-4.303-3.201-4.303-7.404V20.916H71.052zM53.039 40.931h-12.71v-.601c.1-4.704 1.802-9.006 6.505-9.006 4.704 0 6.205 3.802 6.205 8.806v.801zM67.85 69.553l-2.902-10.508c-6.104 1.501-12.209 2.302-16.412 2.302-5.604 0-8.006-2.803-8.006-9.708h27.12c.3-2.802.4-6.104.4-8.607 0-16.712-9.008-23.417-20.016-23.417-15.512 0-23.018 9.106-23.018 27.42 0 17.714 4.904 26.822 21.316 26.822 7.106 0 13.912-1.102 21.518-4.304M21.816 67.05V20.916H6.104v47.537c0 5.104-1.101 9.006-6.104 14.01l9.407 8.307c9.107-6.506 12.409-12.812 12.409-23.72m0-66.65H6.104v13.811h15.712V.4z"></path>
</svg>