<svg xmlns="http://www.w3.org/2000/svg" width="224.56756901653966" height="43.72973011983754" style="">
<rect id="backgroundrect" width="100%" height="100%" x="0" y="0" fill="none" stroke="none" class="" style=""/>
  
<path fill="#EB2136" d="M224.0261455740016,20.1216728400969 h-5.912998997555816 v-0.2795777198907283 c0.047449130497261675,-2.187777065966879 0.8387331596721843,-4.189479110375869 3.0265102256390635,-4.189479110375869 s2.886488771916752,1.7691082674616287 2.886488771916752,4.09690678715082 v0.37215004311577776 zm6.889892860734732,13.314598167574742 l-1.3499742814024842,-4.888190816325742 c-2.8395048289733853,0.6982465183959782 -5.679474845500665,1.0703965615117563 -7.634192946966289,1.0703965615117563 c-2.606911052026024,0 -3.7247567440350418,-1.3034555260130116 -3.7247567440350418,-4.5155755856560695 h12.61588646162487 c0.14002145372231153,-1.3034555260130116 0.18607502155788894,-2.8395048289733853 0.18607502155788894,-4.003869276371875 c0,-7.7742144006885985 -4.189479110375869,-10.893296949552713 -9.310728891202867,-10.893296949552713 c-7.216454523568828,0 -10.707687115548719,4.235997865765341 -10.707687115548719,12.755442727793287 c0,8.24033232969111 2.2812797642997182,12.475865007902557 9.915472711266007,12.475865007902557 c3.306087945529792,0.00046518755389472283 6.471689249783377,-0.5117063092841948 10.009905784706636,-2.0007716693012014 m-40.96767230884651,-22.625327058777607 v16.433680716438854 c0,5.772977543833504 2.607376239579919,8.19288319919385 6.3316677960610654,8.19288319919385 c2.280814576745824,0 4.189944297929764,-0.6047438200631391 6.889892860734732,-2.7929860735839127 l0.5126366843919846,2.235226196464141 h6.052090076170337 v-24.068804038512937 h-7.309492034347772 v16.48066465938222 c-1.116450129347334,1.023877806122284 -2.3277985196891904,1.489065360017006 -3.1656013042535864,1.489065360017006 c-1.3964930367919564,0 -2.00170204440899,-1.489065360017006 -2.00170204440899,-3.444713836590419 V10.810943948894034 h-7.309492034347772 zm-11.777618489506581,6.098608831559809 c0.8382679721182896,0 1.816092210404996,0.5586902522275617 2.933007527306224,1.5365144905142676 v8.751573451421411 c-1.116450129347334,1.0243429936761785 -2.280814576745824,1.5825680583498454 -3.0725637934746413,1.5825680583498454 c-1.67560556912879,0 -2.5603922966365515,-1.6290868137393175 -2.5603922966365515,-5.772047168725714 c-0.00046518755389472283,-4.469522017820492 1.023877806122284,-6.098608831559809 2.6999485628049684,-6.098608831559809 m-2.7004137503588628,18.527955084072897 c1.816092210404996,0 3.58473529031273,-0.6977813308420835 5.632956090111192,-2.280349389191929 v10.148531675767261 h7.309492034347772 V10.810943948894034 H182.36022674675908 l-0.5121714968380894,2.234761008910246 c-2.374317275078662,-2.0482207997984627 -3.7703451243167247,-2.8395048289733853 -5.819031111669082,-2.8395048289733853 c-4.282981808708708,0 -8.054257308133224,4.049922844207453 -8.054257308133224,12.988036504740649 c0.00046518755389472283,8.472926106638472 3.1669968669152695,12.243271230955196 7.495567055905661,12.243271230955196 m-8.704589508478044,-24.626563915632705 h-7.309492034347772 v24.068804038512937 h7.309492034347772 v-24.068804038512937 zm0,-9.543322668150228 h-7.309492034347772 v6.42470530684001 h7.309492034347772 V1.2676212807438043 zm-8.658070753088573,16.66673968094011 V10.206200128830893 h-0.9782894258406012 c-1.9551832890195173,0 -2.7934512611378075,0.6047438200631391 -5.400362313163831,3.444713836590419 l-0.6052090076170339,-2.83997001652728 h-5.8655498670585535 v24.068804038512937 h7.309492034347772 V19.60950134325881 c1.3964930367919564,-1.1634340722907004 2.3277985196891904,-1.67560556912879 3.956885333428508,-1.67560556912879 h1.58303324590374 zM144.793075456883,1.4536963023016933 c-1.3499742814024842,-0.2791125323368336 -2.5138735412470794,-0.3726152306696728 -3.7703451243167247,-0.3726152306696728 c-5.214287291605943,0 -7.5420858112951334,2.606911052026024 -7.5420858112951334,7.588604566684605 v2.141258310577407 h-2.513408353693185 v5.67994003305456 h2.513408353693185 v18.388864005458373 h7.309026846793876 v-18.388864005458373 h3.119082548864113 v-5.67994003305456 h-3.16606649180748 v-2.00170204440899 c0,-1.5360493029603732 0.5126366843919846,-2.3273333321352956 1.9556484765734126,-2.3273333321352956 c0.5586902522275617,0 1.2104180152340673,0.046518755389472276 1.6290868137393175,0.13955626616841676 L144.793075456883,1.4536963023016933 zm-22.392268094276357,25.74394442008783 c-1.116450129347334,1.0243429936761785 -2.280349389191929,1.5825680583498454 -3.0720986059207465,1.5825680583498454 c-1.6760707566826845,0 -2.5603922966365515,-1.6290868137393175 -2.5603922966365515,-5.772047168725714 c0,-4.469522017820492 1.023877806122284,-6.098608831559809 2.6999485628049684,-6.098608831559809 c0.8382679721182896,0 1.8156270228511011,0.5586902522275617 2.9325423397523296,1.5365144905142676 v8.751573451421411 zm7.309492034347772,7.682107265017445 v-24.068804038512937 h-6.052090076170337 l-0.5126366843919846,2.328263707243085 c-2.374317275078662,-2.048685987352357 -3.7703451243167247,-2.933007527306224 -5.819031111669082,-2.933007527306224 c-4.282981808708708,0 -8.053326933025433,4.049922844207453 -8.053326933025433,12.988036504740649 c0,8.472926106638472 3.165136116699692,12.243271230955196 7.495101868351766,12.243271230955196 c1.815161835297207,0 3.6307888581483074,-0.6047438200631391 6.377256176342748,-2.7929860735839127 l0.4656527414486171,2.235226196464141 h6.099074019113704 z" id="svg_1" class="" transform="translate(-7.567567348480225,0) "/><path d="M88.44206126106819,18.64287177753676 h-5.890236367594893 v-0.2785233719059427 c0.04634332311246967,-2.179989919210572 0.8351066824867031,-4.173679679509016 3.015096601697275,-4.173679679509016 c2.1795264859794474,0 2.8751397658976168,1.7619731447360962 2.8751397658976168,4.080993033284078 v0.37121001813088206 zm6.863446152956755,13.264385941251062 l-1.3444198034927444,-4.86975639265831 c-2.8287964427851477,0.6956132799181695 -5.658056318801419,1.0668232980490513 -7.605866189218518,1.0668232980490513 c-2.597079827222799,0 -3.7102464483843196,-1.2990033468425242 -3.7102464483843196,-4.499009807758554 h12.56830922810177 c0.13902996933740897,-1.2985399136113995 0.184909859218754,-2.8287964427851477 0.184909859218754,-3.9887698202902624 c0,-7.744896158555927 -4.173679679509016,-10.852215973247018 -9.2756161209608,-10.852215973247018 c-7.188776281206291,0 -10.666842680797139,4.220023002621486 -10.666842680797139,12.707339197439179 c0,8.209256256142874 2.2722131322043873,12.43020612522661 9.87854275465403,12.43020612522661 c3.292693107140969,0 6.446819678175653,-0.5107034206994155 9.971229400878968,-1.9946166267606937 m-21.286878605250685,1.4380333161799332 V16.97312184579448 c0,-5.750742965026359 -2.597079827222799,-8.208792822911748 -6.307326275607119,-8.208792822911748 c-2.271749698973262,0 -4.173679679509016,0.6497333900368244 -6.863909586187879,2.8287964427851477 l-0.5107034206994155,-2.226333242323042 h-6.029266336932301 v23.978035378391798 h7.281926360662356 V16.926778522682014 c1.1122397546992717,-1.0204799749365816 2.319019888547981,-1.483913206061278 3.1073198146910896,-1.483913206061278 c1.4375698829488084,0 2.040033083410914,1.483913206061278 2.040033083410914,3.432186509709502 v14.470239208637523 h7.281926360662356 zm-41.09077087090234,-23.978035378391798 v16.371705755942152 c0,5.750742965026359 2.597079827222799,8.162912933030405 6.307326275607119,8.162912933030405 c2.2722131322043873,0 4.174143112740141,-0.6038535001554796 6.864373019419004,-2.7833799861349267 l0.510239987468291,2.226796675554166 h6.029266336932301 v-23.978035378391798 H45.35713719663629 v16.418512512285748 c-1.113166621161521,1.020016541705457 -2.3185564553168563,1.4834497728301534 -3.154126571034684,1.4834497728301534 c-1.391226559836339,0 -1.9941531935295689,-1.4834497728301534 -1.9941531935295689,-3.4312596432472526 V9.367255656575965 H32.92785793787194 zM24.580035145622777,18.64287177753676 h-5.890236367594893 v-0.2785233719059427 c0.04634332311246967,-2.179989919210572 0.8351066824867031,-4.173679679509016 3.0146331684661507,-4.173679679509016 c2.179989919210572,0 2.8756031991287414,1.7619731447360962 2.8756031991287414,4.080993033284078 v0.37121001813088206 zM31.443944731810657,31.907257718787825 l-1.3448832367238692,-4.86975639265831 c-2.8287964427851477,0.6956132799181695 -5.658056318801419,1.0668232980490513 -7.605866189218518,1.0668232980490513 c-2.597079827222799,0 -3.7102464483843196,-1.2990033468425242 -3.7102464483843196,-4.499009807758554 h12.56830922810177 c0.13902996933740897,-1.2985399136113995 0.18537329244987868,-2.8287964427851477 0.18537329244987868,-3.9887698202902624 c0,-7.744896158555927 -4.174606545971265,-10.852215973247018 -9.276079554191924,-10.852215973247018 c-7.188776281206291,0 -10.667306114028264,4.220023002621486 -10.667306114028264,12.707339197439179 c0,8.209256256142874 2.2726765654355114,12.43020612522661 9.87854275465403,12.43020612522661 c3.293156540372093,0 6.447283111406778,-0.5107034206994155 9.97215626734122,-1.9946166267606937 M10.110259370216378,30.747284341282707 V9.367255656575965 H2.8287964427851477 v22.0302255079747 c0,2.3653632116604513 -0.510239987468291,4.173679679509016 -2.8287964427851477,6.492699568056998 l4.3595164051900195,3.849739850952854 c4.220486435852611,-3.015096601697275 5.750742965026359,-5.937506557169611 5.750742965026359,-10.9926362422778 m0,-30.88782485446102 H2.8287964427851477 v6.400476355063183 h7.281462927431231 V-0.14054051317830815 z" id="svg_2" class=""/></svg>